<?xml version="1.0" encoding="UTF-8"?>
<svg xmlns="http://www.w3.org/2000/svg" xmlns:xlink="http://www.w3.org/1999/xlink" viewBox="0 0 240 240" width="240px" height="240px">
<g id="surface15044860">
<path style=" stroke:none;fill-rule:nonzero;fill:rgb(25.098041%,75.294119%,34.117648%);fill-opacity:1;" d="M 120.035156 227.09375 C 117.164062 227.09375 114.320312 226.34375 111.804688 224.894531 L 85.605469 209.378906 C 81.691406 207.191406 83.601562 206.414062 84.890625 205.96875 C 90.109375 204.144531 91.164062 203.730469 96.734375 200.566406 C 97.320312 200.230469 98.085938 200.351562 98.683594 200.703125 L 118.816406 212.648438 C 119.539062 213.046875 120.574219 213.046875 121.246094 212.648438 L 199.730469 167.34375 C 200.453125 166.929688 200.929688 166.089844 200.929688 165.226562 L 200.929688 74.660156 C 200.929688 73.753906 200.460938 72.949219 199.714844 72.5 L 121.265625 27.230469 C 120.539062 26.800781 119.574219 26.800781 118.851562 27.230469 L 40.410156 72.496094 C 39.648438 72.925781 39.164062 73.769531 39.164062 74.636719 L 39.164062 165.203125 C 39.164062 166.070312 39.636719 166.894531 40.386719 167.304688 L 61.878906 179.71875 C 73.550781 185.554688 80.679688 178.679688 80.679688 171.765625 L 80.679688 82.378906 C 80.679688 81.105469 81.679688 80.121094 82.960938 80.121094 L 92.898438 80.121094 C 94.140625 80.121094 95.160156 81.101562 95.160156 82.378906 L 95.160156 171.808594 C 95.160156 187.371094 86.675781 196.308594 71.921875 196.308594 C 67.378906 196.308594 63.804688 196.308594 53.824219 191.398438 L 33.234375 179.535156 C 28.144531 176.585938 25 171.078125 25 165.210938 L 25 74.640625 C 25 68.746094 28.144531 63.246094 33.230469 60.335938 L 111.800781 15.011719 C 116.769531 12.199219 123.371094 12.199219 128.304688 15.011719 L 206.773438 60.355469 C 211.835938 63.28125 215 68.765625 215 74.660156 L 215 165.230469 C 215 171.105469 211.835938 176.585938 206.769531 179.535156 L 128.300781 224.855469 C 125.785156 226.308594 122.933594 227.054688 120.03125 227.054688 "/>
<path style=" stroke:none;fill-rule:nonzero;fill:rgb(25.098041%,75.294119%,34.117648%);fill-opacity:1;" d="M 144.28125 164.683594 C 109.941406 164.683594 102.738281 148.921875 102.738281 135.699219 C 102.738281 134.445312 103.753906 133.441406 105.015625 133.441406 L 115.15625 133.441406 C 116.273438 133.441406 117.21875 134.253906 117.394531 135.359375 C 118.925781 145.691406 123.484375 150.898438 144.25 150.898438 C 160.789062 150.898438 167.824219 147.164062 167.824219 138.390625 C 167.824219 133.339844 165.820312 129.589844 140.125 127.074219 C 118.628906 124.953125 105.351562 120.21875 105.351562 103.03125 C 105.351562 87.195312 118.710938 77.765625 141.085938 77.765625 C 166.214844 77.765625 178.671875 86.488281 180.238281 105.230469 C 180.300781 105.878906 180.066406 106.503906 179.628906 106.980469 C 179.199219 107.429688 178.589844 107.703125 177.960938 107.703125 L 167.765625 107.703125 C 166.703125 107.703125 165.78125 106.960938 165.566406 105.933594 C 163.109375 95.070312 157.175781 91.59375 141.046875 91.59375 C 122.988281 91.59375 120.890625 97.878906 120.890625 102.59375 C 120.890625 108.308594 123.363281 109.980469 147.726562 113.203125 C 171.851562 116.40625 183.304688 120.925781 183.304688 137.878906 C 183.304688 154.96875 169.039062 164.773438 144.171875 164.773438 "/>
</g>
</svg>
